<svg width="17" height="14" viewBox="0 0 17 14" fill="none" xmlns="http://www.w3.org/2000/svg">
<g clip-path="url(#clip0_102_7996)">
<path d="M0 0.912265C0.0575671 0.878477 0.0487106 0.810902 0.0664236 0.757807C0.221412 0.318569 0.60224 0.0193072 1.03621 0.00965359C1.08935 0.00965359 1.14691 0.00965359 1.20005 0.00965359C6.0534 0.0048268 10.9112 0.0144804 15.7645 0C16.3623 0 16.845 0.304088 16.9823 0.941225C16.9823 0.946052 16.9911 0.946052 16.9956 0.946052C16.9956 1.10051 16.9956 1.25979 16.9956 1.41425C16.9424 1.44321 16.9469 1.50596 16.9336 1.5494C16.7786 2.00795 16.3978 2.30721 15.9461 2.31686C15.8929 2.31686 15.8354 2.31686 15.7822 2.31686C10.9333 2.31686 6.0844 2.31686 1.23548 2.31686C0.562386 2.31686 0.287835 2.11414 0.0265694 1.42873C0.0221412 1.41908 0.00885647 1.41908 0 1.40942C0 1.25014 0 1.0812 0 0.912265Z" fill="white"/>
<path d="M17.0014 12.9982C16.9483 13.0271 16.9527 13.0899 16.9394 13.1333C16.7844 13.5919 16.4036 13.8911 15.9519 13.9008C15.8988 13.9008 15.8412 13.9008 15.7881 13.9008C10.9392 13.9008 6.09026 13.9008 1.24134 13.9008C0.568245 13.9008 0.293695 13.6981 0.0324288 13.0127C0.0280006 13.003 0.0147158 13.003 0.00585938 12.9934C0.00585938 12.8244 0.00585938 12.6555 0.00585938 12.4865C0.0634264 12.4528 0.05457 12.3852 0.0722829 12.3321C0.227271 11.8928 0.6081 11.5936 1.03764 11.5839C1.09078 11.5839 1.14834 11.5839 1.20148 11.5839C6.05483 11.5839 10.9126 11.5888 15.766 11.5791C16.3638 11.5791 16.8464 11.8832 16.9837 12.5203C16.9837 12.5252 16.9926 12.5252 16.997 12.5252C17.0014 12.6844 17.0014 12.8437 17.0014 12.9982Z" fill="white"/>
<path d="M17.0014 7.20716C16.9483 7.23613 16.9527 7.29887 16.9394 7.34231C16.7844 7.80086 16.4036 8.10012 15.9519 8.10978C15.8988 8.10978 15.8412 8.10978 15.7881 8.10978C10.9392 8.10978 6.09026 8.10978 1.24134 8.10978C0.568245 8.10978 0.293695 7.90705 0.0324288 7.22164C0.0280006 7.21199 0.0147158 7.21199 0.00585938 7.20234C0.00585938 7.0334 0.00585938 6.86446 0.00585938 6.69552C0.0634264 6.66174 0.05457 6.59416 0.0722829 6.54107C0.227271 6.10183 0.6081 5.80257 1.03764 5.79291C1.09078 5.79291 1.14834 5.79291 1.20148 5.79291C6.05483 5.79291 10.9126 5.79774 15.766 5.78809C16.3638 5.78809 16.8464 6.09217 16.9837 6.72931C16.9837 6.73414 16.9926 6.73414 16.997 6.73414C17.0014 6.89342 17.0014 7.05271 17.0014 7.20716Z" fill="white"/>
</g>
<defs>
<clipPath id="clip0_102_7996">
<rect width="17" height="13.9012" fill="white"/>
</clipPath>
</defs>
</svg>
