<svg width="25" height="24" viewBox="0 0 25 24" fill="none" xmlns="http://www.w3.org/2000/svg">
<path d="M14.7903 12.1321L24.5249 3.28764C25.1584 2.71233 25.1584 1.78211 24.5249 1.20687C23.8917 0.631564 22.8678 0.631564 22.2347 1.20687L12.4998 10.0513L2.76536 1.20687C2.13184 0.631564 1.10836 0.631564 0.475142 1.20687C-0.158381 1.78218 -0.158381 2.71233 0.475142 3.28764L10.2095 12.1321L0.475217 20.9766C-0.158305 21.5519 -0.158305 22.4821 0.475217 23.0573C0.62542 23.1942 0.803906 23.3027 1.00042 23.3767C1.19694 23.4507 1.40761 23.4887 1.62033 23.4885C2.03488 23.4885 2.44958 23.3443 2.76543 23.0573L12.4998 14.2129L22.2347 23.0573C22.3849 23.1942 22.5634 23.3027 22.7599 23.3767C22.9564 23.4507 23.1671 23.4887 23.3798 23.4885C23.7944 23.4885 24.2091 23.3443 24.5249 23.0573C25.1584 22.482 25.1584 21.5519 24.5249 20.9766L14.7903 12.1321Z" fill="white"/>
</svg>
