<svg width="18" height="18" viewBox="0 0 18 18" fill="none" xmlns="http://www.w3.org/2000/svg">
<path d="M1.21496 8.21434H15.2049L10.7099 3.71931C10.6435 3.65304 10.5908 3.57433 10.5549 3.48769C10.519 3.40104 10.5005 3.30816 10.5005 3.21437C10.5005 3.12057 10.519 3.02769 10.5549 2.94104C10.5908 2.8544 10.6435 2.77569 10.7099 2.70942C10.7762 2.64303 10.8549 2.59037 10.9415 2.55443C11.0282 2.5185 11.1211 2.5 11.2149 2.5C11.3087 2.5 11.4016 2.5185 11.4883 2.55443C11.5749 2.59037 11.6536 2.64303 11.7199 2.70942L17.4342 8.42297C17.5 8.48931 17.5521 8.56868 17.5884 8.65577C17.6606 8.83055 17.6606 9.02681 17.5884 9.20159C17.5521 9.28868 17.5 9.36788 17.4342 9.43439L11.7199 15.1479C11.6537 15.2144 11.575 15.2671 11.4883 15.303C11.4016 15.3389 11.3087 15.3574 11.2149 15.3573C11.1211 15.3573 11.0282 15.3389 10.9415 15.303C10.8548 15.267 10.7761 15.2144 10.7099 15.1479C10.6435 15.0817 10.5908 15.0029 10.5549 14.9163C10.5189 14.8296 10.5005 14.7367 10.5005 14.6429C10.5005 14.5491 10.5189 14.4562 10.5549 14.3695C10.5908 14.2829 10.6435 14.2042 10.7099 14.1379L15.2049 9.64302H1.21496C0.820673 9.64302 0.500616 9.32297 0.500616 8.92868C0.500616 8.53439 0.820673 8.21434 1.21496 8.21434Z" fill="#F08125"/>
</svg>
