<svg width="16" height="12" viewBox="0 0 16 12" fill="none" xmlns="http://www.w3.org/2000/svg">
<path d="M15.3323 5.33332H2.27514L6.47044 1.13801C6.5324 1.07616 6.58155 1.0027 6.61509 0.92183C6.64863 0.840964 6.66589 0.754278 6.66589 0.666733C6.66589 0.579188 6.64863 0.492502 6.61509 0.411636C6.58155 0.330769 6.5324 0.257309 6.47044 0.195459C6.40858 0.133497 6.33511 0.0843408 6.25423 0.050802C6.17335 0.0172632 6.08665 0 5.99909 0C5.91153 0 5.82483 0.0172632 5.74395 0.050802C5.66307 0.0843408 5.5896 0.133497 5.52774 0.195459L0.194521 5.52803C0.133082 5.58995 0.0844426 5.66403 0.050523 5.74531C-0.016841 5.90844 -0.016841 6.09161 0.050523 6.25474C0.0844426 6.33602 0.133082 6.40994 0.194521 6.47202L5.52774 11.8046C5.58955 11.8666 5.66302 11.9158 5.74391 11.9493C5.8248 11.9829 5.91153 12.0001 5.99909 12C6.08665 12 6.17336 11.9828 6.25425 11.9493C6.33514 11.9158 6.40861 11.8666 6.47044 11.8046C6.53241 11.7427 6.58156 11.6693 6.6151 11.5884C6.64864 11.5075 6.6659 11.4208 6.6659 11.3332C6.6659 11.2457 6.64864 11.159 6.6151 11.0781C6.58156 10.9972 6.53241 10.9238 6.47044 10.8619L2.27514 6.66674H15.3323C15.7003 6.66674 15.999 6.36802 15.999 6.00003C15.999 5.63203 15.7003 5.33332 15.3323 5.33332Z" fill="#F08125"/>
</svg>
