<svg width="16" height="15" viewBox="0 0 16 15" fill="none" xmlns="http://www.w3.org/2000/svg">
<path fill-rule="evenodd" clip-rule="evenodd" d="M15.5096 8.11473C15.8481 7.77619 15.8481 7.22364 15.5096 6.8851L8.87849 0.254221C8.53943 -0.0848367 7.98789 -0.0848367 7.64887 0.254221L7.27795 0.625136C6.9386 0.964493 6.93852 1.51574 7.27792 1.85517L12.3082 6.88495C12.6476 7.22431 12.6476 7.77567 12.3082 8.11502L7.27795 13.1448C6.93852 13.4842 6.93856 14.0354 7.27799 14.3748L7.6489 14.7458C7.98744 15.0843 8.53999 15.0843 8.87853 14.7458L15.5096 8.11473ZM1.85513 14.7458C1.51626 15.0847 0.96419 15.0847 0.625319 14.7458L0.254403 14.3749C-0.0843174 14.0362 -0.0843549 13.4836 0.254403 13.1449L5.28441 8.11502C5.62381 7.77563 5.62381 7.22435 5.28441 6.88495L0.254368 1.85513C-0.084503 1.5163 -0.0844654 0.96393 0.254368 0.625098L0.625283 0.254183C0.964303 -0.0848374 1.51607 -0.0848748 1.85509 0.254183L7.89718 6.29646C9.59206 4.60327 9.16334 5.03266 7.89842 6.2977L8.48579 6.8851C8.82454 7.22386 8.82451 7.776 8.48579 8.11476L1.85513 14.7458Z" fill="#7F7F7F"/>
</svg>
