<svg width="34" height="35" viewBox="0 0 34 35" fill="none" xmlns="http://www.w3.org/2000/svg">
<path d="M0.871871 12.9589C1.49959 13.1229 2.14823 12.759 2.32086 12.1438C2.45686 11.6569 2.24763 11.1597 1.8396 10.888C4.1988 4.78783 10.2668 0.620265 16.9991 0.620265C23.7262 0.620265 29.7942 4.78783 32.1586 10.888C31.7506 11.1597 31.5414 11.6518 31.6774 12.1438C31.8447 12.759 32.4934 13.1281 33.1263 12.9589C33.7541 12.7948 34.1307 12.1592 33.9581 11.539C33.8116 11.0007 33.2989 10.6522 32.7497 10.6829C30.3016 4.34185 23.993 0 16.9991 0C10.0052 0 3.69662 4.33673 1.2485 10.6829C0.704471 10.6522 0.191833 11.0007 0.0401331 11.539C-0.12726 12.1592 0.244148 12.7898 0.871871 12.9589Z" fill="#E4E4E4"/>
<path d="M33.1281 22.0411C32.5004 21.8771 31.8518 22.241 31.6791 22.8562C31.5431 23.3431 31.7524 23.8403 32.1604 24.112C29.8012 30.2122 23.7332 34.3797 17.0009 34.3797C10.2738 34.3797 4.20579 30.2122 1.84143 24.112C2.24943 23.8403 2.45864 23.3482 2.32264 22.8562C2.15525 22.241 1.50665 21.8719 0.873676 22.0411C0.245922 22.2052 -0.130684 22.8408 0.0419235 23.461C0.188351 23.9993 0.701069 24.3478 1.25029 24.3171C3.6984 30.6582 10.007 35 17.0009 35C23.9948 35 30.3034 30.6633 32.7515 24.3171C33.2955 24.3478 33.8082 23.9993 33.9599 23.461C34.1273 22.8408 33.7559 22.2102 33.1281 22.0411Z" fill="#E4E4E4"/>
<circle cx="17.5" cy="17.5" r="11.5" fill="#E4E4E4"/>
</svg>
