<svg width="36" height="29" viewBox="0 0 36 29" fill="none" xmlns="http://www.w3.org/2000/svg">
<path d="M9.74533 20.8839C14.6993 17.6179 19.9453 16.3349 25.4603 18.1629C26.8749 18.6573 28.1856 19.4093 29.3263 20.3809C30.0424 21.1995 30.6268 22.1246 31.0583 23.1229C31.0343 25.1229 30.2073 26.6819 28.4073 27.1429C27.1047 27.4898 25.7402 27.5353 24.4173 27.2759C20.9783 26.5079 17.6173 25.4669 14.2043 24.5829C12.8693 24.2369 11.4663 24.1039 10.1503 23.7089C9.82271 23.6347 9.51524 23.4899 9.24942 23.2845C8.98359 23.0792 8.76582 22.8182 8.61133 22.5199C8.67498 22.1829 8.80885 21.8631 9.00422 21.5812C9.19959 21.2994 9.4521 21.0618 9.74533 20.8839Z" fill="#F08125"/>
<path d="M32.6696 9.36911C31.0573 10.9036 29.0251 11.9573 26.814 12.4053C22.4154 13.4152 17.9694 14.1926 13.6043 15.3555C10.8302 16.0937 8.17351 17.3551 5.46059 18.3716C4.85748 18.6645 4.21457 18.8728 3.55109 18.9903C3.28051 19.022 3.0063 18.9756 2.76281 18.8568C2.51932 18.738 2.31736 18.5522 2.18223 18.3226C2.0471 18.093 1.9848 17.8298 2.00314 17.566C2.02148 17.3022 2.11964 17.0495 2.28533 16.8396C8.11042 9.656 14.7508 3.62279 24.2992 2.1568C26.3234 1.89902 28.3772 1.9594 30.3816 2.33563C31.2745 2.48544 32.0979 2.89928 32.739 3.52051C33.3801 4.14173 33.8076 4.93998 33.963 5.80599C34.0516 6.45673 33.9806 7.11855 33.7558 7.73768C33.5311 8.3568 33.159 8.91575 32.6696 9.36911Z" fill="#F08125"/>
</svg>
