<svg width="15" height="16" viewBox="0 0 15 16" fill="none" xmlns="http://www.w3.org/2000/svg">
<path fill-rule="evenodd" clip-rule="evenodd" d="M6.88527 15.5096C7.22381 15.8481 7.77636 15.8481 8.1149 15.5096L14.7458 8.87849C15.0848 8.53943 15.0848 7.98789 14.7458 7.64887L14.3749 7.27795C14.0355 6.9386 13.4843 6.93852 13.1448 7.27791L8.11505 12.3082C7.77569 12.6476 7.22433 12.6476 6.88497 12.3082L1.85515 7.27795C1.51576 6.93852 0.964552 6.93856 0.625157 7.27799L0.254242 7.6489C-0.0842916 7.98744 -0.0842916 8.53999 0.254242 8.87853L6.88527 15.5096ZM0.254167 1.85513C-0.0847408 1.51626 -0.0847034 0.96419 0.254167 0.625319L0.625082 0.254403C0.963803 -0.0843175 1.51636 -0.084355 1.85512 0.254403L6.88497 5.28441C7.22437 5.62381 7.77565 5.62381 8.11505 5.28441L13.1449 0.254367C13.4837 -0.084504 14.0361 -0.0844665 14.3749 0.254367L14.7458 0.625281C15.0848 0.964301 15.0849 1.51607 14.7458 1.85509L8.70354 7.89718C10.3967 9.59206 9.96734 9.16334 8.7023 7.89842L8.1149 8.48579C7.77614 8.82454 7.22399 8.82451 6.88524 8.48579L0.254167 1.85513Z" fill="#FF8825"/>
</svg>
