<svg width="32" height="32" viewBox="0 0 32 32" fill="none" xmlns="http://www.w3.org/2000/svg">
<path d="M22.6023 15.0794H10.1668L14.1624 11.0838C14.2214 11.0249 14.2682 10.955 14.3002 10.8779C14.3321 10.8009 14.3485 10.7184 14.3485 10.635C14.3485 10.5516 14.3321 10.4691 14.3002 10.392C14.2682 10.315 14.2214 10.2451 14.1624 10.1862C14.1035 10.1271 14.0335 10.0803 13.9565 10.0484C13.8795 10.0164 13.7969 10 13.7135 10C13.6301 10 13.5475 10.0164 13.4705 10.0484C13.3935 10.0803 13.3235 10.1271 13.2646 10.1862L8.18526 15.2649C8.12675 15.3238 8.08042 15.3944 8.04812 15.4718C7.98396 15.6272 7.98396 15.8016 8.04812 15.957C8.08042 16.0344 8.12675 16.1048 8.18526 16.1639L13.2646 21.2426C13.3234 21.3017 13.3934 21.3485 13.4705 21.3805C13.5475 21.4124 13.6301 21.4288 13.7135 21.4287C13.7969 21.4287 13.8795 21.4123 13.9565 21.3804C14.0335 21.3485 14.1035 21.3017 14.1624 21.2426C14.2214 21.1837 14.2682 21.1137 14.3002 21.0367C14.3321 20.9597 14.3486 20.8771 14.3486 20.7937C14.3486 20.7103 14.3321 20.6277 14.3002 20.5507C14.2682 20.4737 14.2214 20.4037 14.1624 20.3448L10.1668 16.3494H22.6023C22.9528 16.3494 23.2373 16.0649 23.2373 15.7144C23.2373 15.3639 22.9528 15.0794 22.6023 15.0794Z" fill="#F08125"/>
<rect x="0.5" y="0.5" width="31" height="31" rx="3.5" stroke="#F29140"/>
</svg>
