<svg width="34" height="39" viewBox="0 0 34 39" fill="none" xmlns="http://www.w3.org/2000/svg">
<path d="M12.0189 26.5C14.3389 22.887 18.7869 20.288 23.0489 19.333C24.9079 19.546 26.7839 19.684 28.6159 20.011C29.2952 20.1836 29.906 20.5589 30.3669 21.087C31.4859 22.287 31.3489 22.829 30.0609 24.02C26.4039 27.403 22.7749 30.82 19.1349 34.22C18.8639 34.475 18.6049 34.742 18.3279 34.989C16.7749 36.375 15.0469 37.275 13.0629 36.483C12.0994 36.1179 11.2924 35.43 10.7795 34.5364C10.2665 33.6429 10.0794 32.5991 10.2499 31.583C10.4535 29.778 11.0579 28.0414 12.0189 26.5Z" fill="#F08125"/>
<path d="M30.2931 14.7867C29.1241 14.9927 27.9261 14.9417 26.7481 15.0977C22.6851 15.6347 18.6281 16.2627 14.5631 16.7537C12.5209 17.0293 10.4603 17.145 8.40007 17.0997C7.18619 17.0231 6.00599 16.6694 4.95007 16.0657C1.68407 14.2497 1.17007 10.5207 3.76307 7.54271C6.22045 4.78765 9.56702 2.98271 13.2191 2.44271C19.8631 1.73671 25.8661 2.98271 29.8311 8.85671C30.6064 10.082 31.23 11.397 31.6881 12.7727C32.0871 13.8747 31.3491 14.5997 30.2931 14.7867Z" fill="#F08125"/>
</svg>
