<svg width="28" height="25" viewBox="0 0 28 25" fill="none" xmlns="http://www.w3.org/2000/svg">
<path opacity="0.5" d="M25.3751 12.2501C26.797 12.2501 28.0001 13.4532 28.0001 14.8751V21.8751C28.0001 23.3517 26.797 24.5001 25.3751 24.5001H18.3751C16.8985 24.5001 15.75 23.3517 15.75 21.8751V8.75005C15.75 3.93753 19.6329 2.04536e-05 24.5001 2.04536e-05H24.9376C25.6485 2.04536e-05 26.2501 0.601585 26.2501 1.31252V3.93753C26.2501 4.70316 25.6485 5.25004 24.9376 5.25004H24.5001C22.5313 5.25004 21.0001 6.83598 21.0001 8.75005V12.2501H25.3751ZM9.62503 12.2501C11.0469 12.2501 12.25 13.4532 12.25 14.8751V21.8751C12.25 23.3517 11.0469 24.5001 9.62503 24.5001H2.62501C1.14844 24.5001 0 23.3517 0 21.8751V8.75005C0 3.93753 3.88282 2.04536e-05 8.75003 2.04536e-05H9.18753C9.89847 2.04536e-05 10.5 0.601585 10.5 1.31252V3.93753C10.5 4.70316 9.89847 5.25004 9.18753 5.25004H8.75003C6.78127 5.25004 5.25002 6.83598 5.25002 8.75005V12.2501H9.62503Z" fill="#F08125"/>
</svg>
